<svg xmlns="http://www.w3.org/2000/svg" width="24" height="24" viewBox="0 0 300 300">
  <path fill="#D50014" d="M150 1.74C68.409 1.74 1.74 68.41 1.74 150S68.41 298.26 150 298.26h148.26V150.17h-.004c0-.057.004-.113.004-.17C298.26 68.409 231.59 1.74 150 1.74zm0 49c55.11 0 99.26 44.15 99.26 99.26 0 55.11-44.15 99.26-99.26 99.26-55.11 0-99.26-44.15-99.26-99.26 0-55.11 44.15-99.26 99.26-99.26z"/>
  <path fill="#D50014" d="M161.388 70.076c-10.662 0-19.42 7.866-19.42 17.67 0 9.803 8.758 17.67 19.42 17.67 10.662 0 19.42-7.867 19.42-17.67 0-9.804-8.758-17.67-19.42-17.67zm45.346 24.554-.02.022-.004.002c-5.402 2.771-11.53 6.895-18.224 11.978l-.002.002-.004.002c-25.943 19.766-60.027 54.218-80.344 80.33h-.072l-1.352 1.768c-5.114 6.69-9.267 12.762-12.098 18.006l-.082.082.022.021v.002l.004.002.174.176.052-.053.102.053-.07.072c30.826 30.537 81.213 30.431 111.918-.273 30.783-30.784 30.8-81.352.04-112.152l-.005-.004zM87.837 142.216c-9.803 0-17.67 8.758-17.67 19.42 0 10.662 7.867 19.42 17.67 19.42 9.804 0 17.67-8.758 17.67-19.42 0-10.662-7.866-19.42-17.67-19.42z"/>
</svg>
