<svg xmlns="http://www.w3.org/2000/svg" viewBox="0 0 297.64 297.64" xmlns:v="https://vecta.io/nano"><g fill="none" stroke="#d51119" stroke-width="49"><circle cx="148.82" cy="148.82" r="123.76"/><path d="M259.58 173.49h13v99.09h-99.22v-10.65" stroke-miterlimit="10"/></g><g fill="#d51119"><g stroke-width="2"><ellipse cx="86.03" cy="159.74" rx="16.67" ry="18.42" stroke="#d51119"/><ellipse cx="159.58" cy="85.85" rx="18.42" ry="16.67" stroke="#d51119"/></g><path d="M189.4 108.32c22.36 22.39 22.35 58.67-.03 81.05-22.32 22.32-58.48 22.39-80.88.2 19.78-25.84 54.91-61.44 80.91-81.25z"/></g><g fill="none" stroke="#d51119" stroke-miterlimit="10"><path d="M108.48 189.57l-.2-.2m81.09-81.08l.03.03c22.36 22.39 22.35 58.67-.03 81.05-22.32 22.32-58.48 22.39-80.88.2" stroke-width="44"/><path d="M96.71 207.08c2.64-4.91 6.71-10.89 11.77-17.51h.01c19.78-25.84 54.91-61.44 80.91-81.25 6.57-4.99 12.55-8.99 17.56-11.56" stroke-width="9"/></g></svg>